<?xml version="1.0" encoding="iso-8859-1"?>
<!-- Generator: Adobe Illustrator 19.0.0, SVG Export Plug-In . SVG Version: 6.00 Build 0)  -->
<svg version="1.1" id="Layer_1" xmlns="http://www.w3.org/2000/svg" xmlns:xlink="http://www.w3.org/1999/xlink" x="0px" y="0px"
	 viewBox="0 0 310 310" style="enable-background:new 0 0 310 310;" xml:space="preserve">
<g id="XMLID_828_">
	<path id="XMLID_829_" d="M249.775,236.928c-1.613-0.873-3.58-0.789-5.119,0.221c-14.15,9.295-28.469,14.007-42.557,14.007
		c-7.678,0-14.285-1.725-20.236-5.297c-4.023-2.366-6.688-5.399-8.139-9.257c-1.107-2.978-2.43-10.9-2.43-31.739v-71.945h66.168
		c2.762,0,5-2.239,5-5V80.818c0-2.762-2.238-5-5-5h-66.168V5c0-2.762-2.238-5-5-5h-42.684c-2.523,0-4.652,1.881-4.961,4.386
		c-1.836,14.831-5.201,27.143-10.01,36.601c-4.744,9.381-11.141,17.526-19.018,24.216c-7.842,6.687-17.451,11.899-28.563,15.491
		c-2.064,0.667-3.463,2.589-3.463,4.758v42.466c0,2.761,2.238,5,5,5h28.168v100.237c0,14.492,1.523,25.36,4.656,33.218
		c3.158,7.955,8.83,15.496,16.863,22.418c7.922,6.801,17.568,12.104,28.67,15.758c10.971,3.618,23.73,5.452,37.922,5.452
		c12.416,0,24.141-1.269,34.85-3.772c10.73-2.514,22.779-6.91,35.811-13.065c1.75-0.826,2.865-2.587,2.865-4.521v-47.314
		C252.402,239.49,251.395,237.8,249.775,236.928z"/>
</g>
<g>
</g>
<g>
</g>
<g>
</g>
<g>
</g>
<g>
</g>
<g>
</g>
<g>
</g>
<g>
</g>
<g>
</g>
<g>
</g>
<g>
</g>
<g>
</g>
<g>
</g>
<g>
</g>
<g>
</g>
</svg>
