<svg xmlns="http://www.w3.org/2000/svg" fill="none" viewBox="0 0 3070 696">
  <path fill="#B59F5B" d="M485.331 135.438V696h-3.762L105.343 353.643l3.762 319.784H0V112.865h3.7623L379.988 458.984l-3.762-323.546h109.105Z"/>
  <path fill="#fff" stroke="#E8E8E8" d="m861.808 165.967.009-.005.008-.005c41.291-26.275 86.341-37.543 138.935-37.543 52.58 0 93.88 11.261 138.94 37.548 41.32 26.295 75.13 60.101 101.42 101.42 26.28 41.293 37.55 86.343 37.55 135.169 0 48.823-11.27 93.882-37.56 138.948-26.28 45.059-60.08 75.103-101.42 101.409-41.29 26.275-86.34 37.543-138.93 37.543-48.821 0-93.878-11.263-138.943-37.548-41.335-26.305-75.126-56.348-101.41-101.404-26.287-45.063-37.551-86.355-37.554-138.927 3.76-45.089 15.032-93.909 37.553-135.204 26.304-41.331 56.348-75.12 101.402-101.401Zm-4.448 327.124c15.076 26.384 33.944 49.036 60.382 64.143 26.411 15.092 52.832 22.639 86.778 22.639 30.19 0 56.61-7.55 83.02-22.639 26.44-15.107 45.31-37.759 60.38-64.143 15.1-26.414 22.64-56.598 22.64-86.777 0-33.948-7.55-60.368-22.64-86.778-15.07-26.383-33.94-49.036-60.38-64.143-26.41-15.089-52.83-22.639-83.02-22.639-30.102 0-64.128 3.754-86.85 22.689l-.032.027c-22.552 18.793-45.184 37.652-60.278 64.066-15.095 26.415-22.639 56.598-22.639 86.778 0 30.179 7.544 60.363 22.639 86.777ZM1617.77 572.349h270.38v100.578h-371.46V135.938h363.94v100.578h-263.36v117.627h233.26v100.579h-233.26v117.627h.5ZM1834.67.5l-107.99 96.8162h-62.87L1723.39.5h111.28ZM2584.26 417.31l-176.42 247.736-168.89-232.691-.91-1.247v241.819h-100.58V114.453l269.97 386.201.41.574.41-.566 281.26-386.261v558.526h-104.34V416.036l-.91 1.274ZM3069.5 135.938v536.989h-104.34V135.938h104.34Z"/>
</svg>
