<?xml version="1.0" encoding="utf-8"?>
<!-- Generator: Adobe Illustrator 22.1.0, SVG Export Plug-In . SVG Version: 6.00 Build 0)  -->
<svg version="1.1" id="Layer_1" xmlns="http://www.w3.org/2000/svg" xmlns:xlink="http://www.w3.org/1999/xlink" x="0px" y="0px"
	 viewBox="0 0 81.6 18.5" style="enable-background:new 0 0 81.6 18.5;" xml:space="preserve">
<style type="text/css">
	.st0{fill:#B59F5B;}
	.st1{fill:#FFFFFF;}
</style>
<path class="st0" d="M12.9,3.6v14.9h-0.1l-10-9.1l0.1,8.5H0V3h0.1l10,9.2L10,3.6C10,3.6,12.9,3.6,12.9,3.6z"/>
<path class="st1" d="M20.2,7.1c0.7-1.1,1.5-2,2.7-2.7c1.1-0.7,2.3-1,3.7-1s2.5,0.3,3.7,1c1.1,0.7,2,1.6,2.7,2.7s1,2.3,1,3.6
	s-0.3,2.5-1,3.7s-1.6,2-2.7,2.7s-2.3,1-3.7,1c-1.3,0-2.5-0.3-3.7-1c-1.1-0.7-2-1.5-2.7-2.7s-1-2.3-1-3.7C19.3,9.5,19.6,8.2,20.2,7.1
	z M22.8,13.1c0.4,0.7,0.9,1.3,1.6,1.7s1.4,0.6,2.3,0.6c0.8,0,1.5-0.2,2.2-0.6c0.7-0.4,1.2-1,1.6-1.7s0.6-1.5,0.6-2.3
	c0-0.9-0.2-1.6-0.6-2.3s-0.9-1.3-1.6-1.7s-1.4-0.6-2.2-0.6S25,6.3,24.4,6.8s-1.2,1-1.6,1.7s-0.6,1.5-0.6,2.3
	C22.2,11.6,22.4,12.4,22.8,13.1z"/>
<path class="st1" d="M50,3.6v2.7h-7v3.1h6.2v2.7H43v3.1h7.2v2.7h-9.9V3.6H50z M45.9,2.6h-1.7L45.8,0h3L45.9,2.6z"/>
<path class="st1" d="M71.5,3v14.9h-2.8v-6.8L64,17.7l0,0l-4.5-6.2v6.4h-2.7V3l0,0L64,13.3L71.5,3L71.5,3z"/>
<path class="st1" d="M81.6,3.6v14.3h-2.8V3.6H81.6z"/>
</svg>
