<svg xmlns="http://www.w3.org/2000/svg" fill="none" viewBox="0 0 512 512"><g clip-path="url(#clip0)"><path fill="#fff" stroke="#B59F5B" d="M373.403 339.292l-.29.344.312.324 121.857 126.737c10.117 10.524 9.782 27.302-.733 37.42l.347.36-.347-.36c-4.948 4.763-11.466 7.383-18.338 7.383-7.261 0-14.034-2.884-19.072-8.116L334.357 375.686l-.297-.309-.351.246c-34.78 24.442-75.457 37.317-118.145 37.317-113.708 0-206.22-92.513-206.22-206.22C9.344 93.012 101.856.5 215.564.5c113.707 0 206.22 92.512 206.22 206.22 0 48.668-17.125 95.416-48.381 132.572zm-4.546-132.572c0-84.528-68.765-153.293-153.293-153.293S62.271 122.192 62.271 206.72s68.765 153.293 153.293 153.293 153.293-68.765 153.293-153.293z"/></g><defs><clipPath id="clip0"><path fill="#fff" d="M0 0h512v512H0z"/></clipPath></defs></svg>