<svg viewBox="0 0 288 264" xmlns="http://www.w3.org/2000/svg">
  <g fill-rule="evenodd">
    <path d="M115.5 36.848v190.304L253.03 132 115.5 36.848zM282.112 142.28l-172 119c-8.29 5.736-19.612-.198-19.612-10.28V13c0-10.082 11.321-16.016 19.612-10.28l172 119c7.184 4.97 7.184 15.59 0 20.56z" fill-rule="nonzero"/>
    <path d="M42.5 107h107a8 8 0 1 0 0-16h-107a8 8 0 1 0 0 16zm0 70h107a8 8 0 1 0 0-16h-107a8 8 0 1 0 0 16zM8 143h168a8 8 0 1 0 0-16H8a8 8 0 1 0 0 16z" fill-rule="nonzero" stroke-linecap="round" stroke-linejoin="round"/>
  </g>
</svg>
